<?xml version="1.0" encoding="utf-8"?>
<!-- Generator: Adobe Illustrator 16.0.0, SVG Export Plug-In . SVG Version: 6.00 Build 0)  -->
<!DOCTYPE svg PUBLIC "-//W3C//DTD SVG 1.1//EN" "http://www.w3.org/Graphics/SVG/1.1/DTD/svg11.dtd">
<svg version="1.1" id="Camada_1" xmlns="http://www.w3.org/2000/svg" xmlns:xlink="http://www.w3.org/1999/xlink" x="0px" y="0px"
	 width="146px" height="151px" viewBox="0 0 146 151" enable-background="new 0 0 146 151" xml:space="preserve">
<g>
	<path fill="#4A66A8" d="M140.857,75.68c0-37.279-30.221-67.5-67.5-67.5s-67.5,30.221-67.5,67.5
		c0,33.691,24.684,61.616,56.953,66.68V95.192H45.671V75.68H62.81V60.809c0-16.917,10.078-26.262,25.496-26.262
		c7.385,0,15.11,1.318,15.11,1.318v16.611h-8.512c-8.385,0-11,5.203-11,10.542V75.68h18.721l-2.993,19.512H83.904v47.168
		C116.173,137.296,140.857,109.372,140.857,75.68z"/>
	<path fill="#FFFFFF" d="M99.445,95.649l2.993-19.512H83.717V63.476c0-5.338,2.615-10.542,11-10.542h8.512V36.323
		c0,0-7.725-1.318-15.11-1.318c-15.418,0-25.496,9.345-25.496,26.262v14.871H45.485v19.512h17.139v47.168
		c3.437,0.54,6.959,0.82,10.547,0.82s7.11-0.281,10.547-0.82V95.649H99.445z"/>
</g>
</svg>
