<?xml version="1.0" encoding="utf-8"?>
<!-- Generator: Adobe Illustrator 16.0.0, SVG Export Plug-In . SVG Version: 6.00 Build 0)  -->
<!DOCTYPE svg PUBLIC "-//W3C//DTD SVG 1.1//EN" "http://www.w3.org/Graphics/SVG/1.1/DTD/svg11.dtd">
<svg version="1.1" id="Camada_1" xmlns="http://www.w3.org/2000/svg" xmlns:xlink="http://www.w3.org/1999/xlink" x="0px" y="0px"
	 width="146px" height="151px" viewBox="0 0 146 151" enable-background="new 0 0 146 151" xml:space="preserve">
<g>
	<path fill-rule="evenodd" clip-rule="evenodd" fill="#FFFFFF" d="M143.382,80.29c0,20.606,0,41.213,0,61.819
		c-46.343,0-92.685,0-139.028,0c0-20.518,0-41.036,0-61.554c0.089,0.473,0.212,0.943,0.263,1.42
		c0.843,7.878,2.49,15.49,6.256,22.605c3.403,6.431,7.123,12.556,12.325,17.726c3.671,3.648,7.426,7.126,11.811,9.954
		c5.12,3.301,10.528,5.906,16.268,7.879c3.138,1.078,5.31-0.43,5.297-3.726c-0.014-3.582-0.063-7.162-0.106-10.743
		c-0.005-0.412-0.07-0.824-0.076-0.883c-3.545,0.027-6.896,0.195-10.23,0.033c-2.777-0.135-5.512-0.721-7.915-2.311
		c-2.733-1.809-4.519-4.296-5.774-7.319c-1.507-3.63-3.605-6.864-7.153-8.939c-0.803-0.47-1.411-1.311-2.031-2.046
		c-0.681-0.809-0.376-1.54,0.589-1.603c1.42-0.092,2.954-0.203,4.271,0.219c3.761,1.207,6.748,3.538,8.792,6.981
		c1.259,2.121,2.828,3.962,4.969,5.229c4.482,2.651,9.066,1.818,13.67,0.355c0.83-0.264,1.165-0.739,1.315-1.579
		c0.322-1.809,0.744-3.584,2.034-5.039c0.777-0.876,1.386-1.901,2.108-2.912c-0.466-0.103-0.88-0.24-1.303-0.28
		c-4.644-0.436-9.099-1.552-13.415-3.356c-5.856-2.449-10.288-6.442-13.175-12.042c-2.339-4.536-3.269-9.497-3.558-14.556
		c-0.233-4.068-0.04-8.104,1.251-12.045c1.092-3.334,2.893-6.183,5.24-8.749c0.306-0.334,0.509-1.052,0.371-1.459
		c-1.661-4.872-1.42-9.72-0.013-14.587c0.855-2.957,1.54-3.378,4.583-2.699c0.043,0.009,0.083,0.033,0.125,0.043
		c5.04,1.292,9.77,3.296,14.073,6.238c0.805,0.55,1.538,0.606,2.462,0.401c2.494-0.551,4.995-1.137,7.526-1.448
		c8.361-1.029,16.654-0.648,24.845,1.466c0.591,0.152,1.378-0.03,1.951-0.309c3.56-1.736,7.049-3.617,10.633-5.299
		c2.087-0.979,4.35-1.485,6.693-1.225c0.403,0.045,0.994,0.33,1.119,0.651c2.026,5.235,2.791,10.592,1.002,16.042
		c-0.379,1.154-0.187,1.825,0.542,2.672c2.543,2.959,4.251,6.363,5.163,10.167c1.315,5.486,1.005,10.991-0.087,16.431
		c-1.587,7.907-4.996,14.668-12.574,18.606c-3.338,1.735-6.677,3.385-10.443,3.994c-2.459,0.398-4.901,0.905-7.527,1.396
		c4.082,3.92,4.496,8.896,4.48,14.013c-0.018,5.394-0.012,10.788-0.001,16.182c0.007,3.816,2.076,5.174,5.731,3.924
		c8.186-2.801,15.661-6.918,22.272-12.454c5.849-4.898,10.708-10.742,14.736-17.228c5.204-8.378,7.778-17.677,9.289-27.325
		C143.17,82.117,143.265,81.202,143.382,80.29z"/>
	<path fill-rule="evenodd" clip-rule="evenodd" d="M143.382,80.29c-0.117,0.912-0.212,1.827-0.354,2.735
		c-1.511,9.647-4.085,18.946-9.289,27.325c-4.028,6.486-8.888,12.33-14.736,17.228c-6.611,5.536-14.086,9.653-22.272,12.454
		c-3.655,1.25-5.724-0.108-5.731-3.924c-0.01-5.394-0.016-10.788,0.001-16.182c0.016-5.117-0.398-10.093-4.48-14.013
		c2.626-0.491,5.068-0.999,7.527-1.396c3.766-0.609,7.105-2.259,10.443-3.994c7.578-3.938,10.987-10.699,12.574-18.606
		c1.092-5.439,1.402-10.945,0.087-16.431c-0.912-3.804-2.62-7.207-5.163-10.167c-0.728-0.847-0.92-1.519-0.542-2.672
		c1.788-5.45,1.023-10.807-1.002-16.042c-0.125-0.321-0.716-0.606-1.119-0.651c-2.343-0.261-4.605,0.245-6.693,1.225
		c-3.584,1.682-7.074,3.563-10.633,5.299c-0.573,0.279-1.36,0.461-1.951,0.309c-8.191-2.114-16.484-2.496-24.845-1.466
		c-2.531,0.311-5.032,0.897-7.526,1.448c-0.924,0.205-1.657,0.149-2.462-0.401c-4.303-2.942-9.033-4.947-14.073-6.238
		c-0.043-0.011-0.083-0.034-0.125-0.043c-3.044-0.679-3.728-0.257-4.583,2.699c-1.407,4.867-1.648,9.715,0.013,14.587
		c0.139,0.407-0.065,1.125-0.371,1.459c-2.347,2.566-4.147,5.415-5.24,8.749c-1.291,3.942-1.484,7.978-1.251,12.045
		c0.29,5.059,1.219,10.021,3.558,14.556c2.888,5.599,7.319,9.593,13.175,12.042c4.315,1.804,8.771,2.921,13.415,3.356
		c0.423,0.04,0.837,0.177,1.303,0.28c-0.722,1.011-1.331,2.035-2.108,2.912c-1.29,1.455-1.711,3.23-2.034,5.039
		c-0.15,0.84-0.485,1.315-1.315,1.579c-4.604,1.463-9.188,2.296-13.67-0.355c-2.142-1.267-3.71-3.108-4.969-5.229
		c-2.044-3.444-5.032-5.774-8.792-6.981c-1.317-0.422-2.851-0.312-4.271-0.219c-0.965,0.063-1.27,0.794-0.589,1.603
		c0.62,0.736,1.228,1.577,2.031,2.046c3.548,2.075,5.646,5.309,7.153,8.939c1.255,3.023,3.041,5.51,5.774,7.319
		c2.403,1.59,5.138,2.176,7.915,2.311c3.335,0.162,6.686-0.006,10.23-0.033c0.005,0.059,0.071,0.471,0.076,0.883
		c0.043,3.581,0.093,7.162,0.106,10.743c0.012,3.296-2.159,4.804-5.297,3.726c-5.74-1.973-11.148-4.578-16.268-7.879
		c-4.385-2.828-8.14-6.305-11.811-9.954c-5.203-5.17-8.922-11.294-12.325-17.726c-3.766-7.116-5.413-14.727-6.256-22.605
		c-0.051-0.477-0.173-0.947-0.263-1.42c0-3.184,0-6.368,0-9.551c0.085-0.292,0.221-0.578,0.248-0.875
		c0.741-8.13,2.498-15.95,6.381-23.248c3.349-6.294,6.937-12.348,12.076-17.412c3.786-3.73,7.683-7.25,12.17-10.151
		c9.436-6.099,19.667-9.803,30.849-10.978c10.07-1.058,19.925-0.113,29.567,2.928c8.95,2.823,16.89,7.521,24.096,13.459
		c4.555,3.753,8.328,8.292,11.726,13.067c6.572,9.237,9.882,19.774,11.577,30.879c0.118,0.776,0.226,1.553,0.338,2.33
		C143.382,74.099,143.382,77.194,143.382,80.29z"/>
	<path fill-rule="evenodd" clip-rule="evenodd" fill="#FFFFFF" d="M143.382,71.003c-0.112-0.777-0.22-1.554-0.338-2.33
		c-1.695-11.105-5.005-21.642-11.577-30.879c-3.397-4.775-7.171-9.313-11.726-13.067c-7.207-5.938-15.146-10.636-24.096-13.459
		C86.003,8.227,76.147,7.282,66.078,8.34c-11.182,1.175-21.413,4.879-30.849,10.978c-4.487,2.901-8.384,6.421-12.17,10.151
		c-5.139,5.064-8.727,11.118-12.076,17.412C7.1,54.179,5.343,61.999,4.602,70.129c-0.027,0.297-0.163,0.583-0.248,0.875
		c0-21.58,0-43.159,0-64.738c46.343,0,92.685,0,139.028,0C143.382,27.845,143.382,49.424,143.382,71.003z"/>
</g>
</svg>
