<?xml version="1.0" encoding="utf-8"?>
<!-- Generator: Adobe Illustrator 16.0.0, SVG Export Plug-In . SVG Version: 6.00 Build 0)  -->
<!DOCTYPE svg PUBLIC "-//W3C//DTD SVG 1.1//EN" "http://www.w3.org/Graphics/SVG/1.1/DTD/svg11.dtd">
<svg version="1.1" id="Camada_1" xmlns="http://www.w3.org/2000/svg" xmlns:xlink="http://www.w3.org/1999/xlink" x="0px" y="0px"
	 width="146px" height="151px" viewBox="0 0 146 151" enable-background="new 0 0 146 151" xml:space="preserve">
<g>
	<linearGradient id="SVGID_1_" gradientUnits="userSpaceOnUse" x1="73.0005" y1="132.8394" x2="73.0005" y2="-2.1602">
		<stop  offset="0" style="stop-color:#73AA51"/>
		<stop  offset="1" style="stop-color:#92B973"/>
	</linearGradient>
	<circle fill="url(#SVGID_1_)" cx="73" cy="75.147" r="67.5"/>
	<g>
		<g id="WA_Logo_2_">
			<g>
				<path fill-rule="evenodd" clip-rule="evenodd" fill="#FFFFFF" d="M105.47,43.508c-8.084-8.091-18.836-12.549-30.29-12.554
					c-23.603,0-42.812,19.202-42.82,42.804c-0.004,7.544,1.968,14.909,5.716,21.4L32,117.341l22.699-5.953
					c6.255,3.41,13.297,5.208,20.463,5.21h0.018c23.6,0,42.811-19.204,42.82-42.806C118.004,62.354,113.555,51.599,105.47,43.508z
					 M75.18,109.369h-0.015c-6.386-0.002-12.649-1.717-18.114-4.959l-1.3-0.771l-13.47,3.533l3.596-13.129l-0.847-1.346
					c-3.563-5.665-5.444-12.212-5.441-18.935c0.008-19.617,15.974-35.577,35.605-35.577c9.506,0.003,18.441,3.709,25.161,10.435
					c6.72,6.725,10.418,15.664,10.415,25.171C110.763,93.408,94.796,109.369,75.18,109.369z M94.702,82.722
					c-1.07-0.535-6.33-3.123-7.312-3.48c-0.98-0.357-1.693-0.536-2.407,0.535c-0.713,1.071-2.764,3.48-3.388,4.194
					s-1.248,0.803-2.317,0.268c-1.07-0.535-4.518-1.665-8.604-5.309c-3.181-2.836-5.328-6.339-5.952-7.41s-0.066-1.65,0.469-2.183
					c0.481-0.479,1.07-1.25,1.605-1.874s0.713-1.071,1.069-1.785c0.357-0.714,0.179-1.338-0.089-1.874
					c-0.268-0.536-2.407-5.8-3.299-7.942c-0.868-2.085-1.75-1.803-2.407-1.836c-0.623-0.031-1.337-0.038-2.051-0.038
					c-0.713,0-1.872,0.268-2.853,1.338c-0.981,1.071-3.745,3.658-3.745,8.923s3.834,10.351,4.369,11.064s7.544,11.518,18.277,16.15
					c2.553,1.102,4.546,1.76,6.1,2.253c2.563,0.814,4.896,0.699,6.739,0.424c2.055-0.307,6.33-2.588,7.222-5.086
					c0.892-2.499,0.892-4.64,0.624-5.086C96.485,83.525,95.771,83.257,94.702,82.722z"/>
			</g>
		</g>
	</g>
</g>
</svg>
